<svg xmlns="http://www.w3.org/2000/svg" viewBox="0 0 260 230" preserveAspectRatio="xMidYMid meet" role="img" aria-labelledby="title desc">
  <title id="title">PCCM Tools lung logo</title>
  <desc id="desc">Stylized blue and orange lungs with a central airway.</desc>
  <defs>
    <linearGradient id="lungBlue" x1="12%" y1="6%" x2="28%" y2="92%">
      <stop offset="0%" stop-color="#8fd7f3"/>
      <stop offset="55%" stop-color="#4f90d8"/>
      <stop offset="100%" stop-color="#2565c4"/>
    </linearGradient>
    <linearGradient id="lungOrange" x1="18%" y1="4%" x2="86%" y2="92%">
      <stop offset="0%" stop-color="#ffc24d"/>
      <stop offset="56%" stop-color="#ff982f"/>
      <stop offset="100%" stop-color="#ff5f16"/>
    </linearGradient>
    <linearGradient id="airway" x1="50%" y1="0%" x2="50%" y2="100%">
      <stop offset="0%" stop-color="#90a8cc"/>
      <stop offset="100%" stop-color="#5f7eb5"/>
    </linearGradient>
  </defs>

  <path
    fill="url(#airway)"
    d="M120 15c0-4 3-7 7-7h6c4 0 7 3 7 7v43c0 18 3 36 10 52 7 15 16 28 29 40l-9 12c-15-10-27-24-35-42-2-6-4-11-5-17-2 6-3 11-6 17-8 18-20 32-35 42l-9-12c13-12 23-25 29-40 7-16 10-34 10-52z"/>
  <path
    fill="url(#lungBlue)"
    d="M114 33c-17-9-35-8-52 4C44 49 30 67 20 91 7 124 1 157 5 190c2 15 7 26 16 33 8 7 18 8 29 2 10-5 19-11 28-16 9-4 19-7 31-9 13-2 23-8 31-17 12-15 18-41 19-79 1-25-1-45-5-60-3-11-10-19-19-24-7-3-14-4-21-1z"/>
  <path
    fill="url(#lungOrange)"
    d="M146 33c7-3 14-2 21 1 9 5 16 13 19 24 4 15 6 35 5 60 1 38 7 64 19 79 8 9 18 15 31 17 12 2 22 5 31 9 9 5 18 11 28 16 11 6 21 5 29-2 9-7 14-18 16-33 4-33-2-66-15-99-10-24-24-42-42-54-17-12-35-13-52-4z"/>
</svg>
